<svg xmlns="http://www.w3.org/2000/svg" viewBox="-5 -5 74 74" fill="none" stroke-width="2.5" stroke-linecap="round" stroke-linejoin="round">
  <g transform="rotate(-15, 32, 32)">
    <path d="M8 28 C2 24 -2 20 4 16 C10 12 4 8 2 4" stroke="#999" stroke-width="0.5" fill="none"/>
    <circle cx="8" cy="32" r="3" stroke="#999" stroke-width="1.5"/>
    <path d="M12 32 Q20 24 32 24 Q46 24 50 32 Q46 40 32 40 Q20 40 12 32Z" fill="white" stroke="#666"/>
    <path d="M12 32 Q16 26 22 26 Q26 26 26 32 Q26 38 22 38 Q16 38 12 32Z" fill="#ef4444" opacity="0.8" stroke="#ef4444"/>
    <path d="M26 34 Q38 38 48 34" stroke="#ccc" stroke-width="1.5"/>
    <line x1="30" y1="25" x2="32" y2="30" stroke="#ddd" stroke-width="1.5"/>
    <line x1="36" y1="24.5" x2="38" y2="30" stroke="#ddd" stroke-width="1.5"/>
    <line x1="42" y1="25.5" x2="43" y2="30" stroke="#ddd" stroke-width="1.5"/>
    <path d="M50 32 L58 24 L58 40 Z" fill="#ef4444" opacity="0.3" stroke="#ef4444"/>
    <circle cx="18" cy="31" r="2.5" fill="white" stroke="#333"/>
    <circle cx="18.5" cy="31" r="1" fill="#333"/>
    <line x1="24" y1="40" x2="24" y2="44" stroke="#999" stroke-width="1"/>
    <path d="M24 44 Q24 49 20 49 Q17 47 20 44" stroke="#ef4444" stroke-width="1.2"/>
    <path d="M24 44 Q24 49 28 49 Q31 47 28 44" stroke="#ef4444" stroke-width="1.2"/>
    <line x1="42" y1="40" x2="42" y2="44" stroke="#999" stroke-width="1"/>
    <path d="M42 44 Q42 49 38 49 Q35 47 38 44" stroke="#ef4444" stroke-width="1.2"/>
    <path d="M42 44 Q42 49 46 49 Q49 47 46 44" stroke="#ef4444" stroke-width="1.2"/>
    <path d="M12 32 L6 38" stroke="#2563eb" stroke-width="2.5"/>
  </g>
</svg>
